<svg xmlns="http://www.w3.org/2000/svg" width="412.5286560058594" height="181.43023681640625" viewBox="-241.06932067871094 -112.20342254638672 412.5286560058594 181.43023681640625"><title>Neo4j Graph Visualization</title><desc>Created using Neo4j (http://www.neo4j.com/)</desc><g class="layer relationships"><g class="relationship" transform="translate(142.45934212721613 -21.691831633894406) rotate(205.56795047049604)"><path class="outline" fill="#A5ABB6" stroke="none" d="M 21.40063509461097,12.933012701892217 L 21.90063509461097,12.06698729810778 A 95.92535409560006 95.92535409560006 0 0 0 58.01669183080713,24.184218285347583 L 57.89319350835322,25.176563066334054 A 96.92535409560006 96.92535409560006 0 0 1 21.40063509461097,12.933012701892217 Z M 77.29146564429853,25.63348973847195 L 77.21482776588994,24.636430745436428 A 95.92535409560006 95.92535409560006 0 0 0 113.86135620382476,14.233123847247743 L 112.48534739542677,11.567303193263092 L 120.31093919785526,11.46674006998322 L 115.69603461502206,17.78755138589395 L 114.32002580662407,15.121730731909295 A 96.92535409560006 96.92535409560006 0 0 1 77.29146564429853,25.63348973847195"/><text text-anchor="middle" pointer-events="none" font-size="8px" fill="#000000" x="67.59264091870538" y="28.3918087362576" transform="rotate(180 67.59264091870538 25.3918087362576)" font-family="sans-serif">trek</text></g><g class="relationship" transform="translate(13.89023124078915 -83.20342511249558) rotate(482.67597285377127)"><path class="outline" fill="#A5ABB6" stroke="none" d="M 25 0.5 L 60.15078238759064 0.5 L 60.15078238759064 -0.5 L 25 -0.5 Z M 79.48671988759064 0.5 L 114.63750227518128 0.5 L 114.63750227518128 3.5 L 121.63750227518128 0 L 114.63750227518128 -3.5 L 114.63750227518128 -0.5 L 79.48671988759064 -0.5 Z"/><text text-anchor="middle" pointer-events="none" font-size="8px" fill="#000000" x="69.81875113759064" y="3" transform="rotate(180 69.81875113759064 0)" font-family="sans-serif">trek</text></g><g class="relationship" transform="translate(-65.2775061229458 40.22682415489627) rotate(182.84803673698877)"><path class="outline" fill="#A5ABB6" stroke="none" d="M 25 0.5 L 60.31869657076267 0.5 L 60.31869657076267 -0.5 L 25 -0.5 Z M 79.65463407076267 0.5 L 114.97333064152534 0.5 L 114.97333064152534 3.5 L 121.97333064152534 0 L 114.97333064152534 -3.5 L 114.97333064152534 -0.5 L 79.65463407076267 -0.5 Z"/><text text-anchor="middle" pointer-events="none" font-size="8px" fill="#000000" x="69.98666532076267" y="3" transform="rotate(180 69.98666532076267 0)" font-family="sans-serif">trek</text></g><g class="relationship" transform="translate(142.45934212721613 -21.691831633894406) rotate(205.56795047049604)"><path class="outline" fill="#A5ABB6" stroke="none" d="M 25 0.5 L 56.75719628219703 0.5 L 56.75719628219703 -0.5 L 25 -0.5 Z M 78.76891503219703 0.5 L 110.52611131439406 0.5 L 110.52611131439406 3.5 L 117.52611131439406 0 L 110.52611131439406 -3.5 L 110.52611131439406 -0.5 L 78.76891503219703 -0.5 Z"/><text text-anchor="middle" pointer-events="none" font-size="8px" fill="#000000" x="67.76305565719703" y="3" transform="rotate(180 67.76305565719703 0)" font-family="sans-serif">road</text></g><g class="relationship" transform="translate(142.45934212721613 -21.691831633894406) rotate(205.56795047049604)"><path class="outline" fill="#A5ABB6" stroke="none" d="M 21.40063509461097,-12.933012701892217 L 21.90063509461097,-12.06698729810778 A 95.92535409560006 95.92535409560006 0 0 1 37.545832042038725,-19.31071167716719 L 37.20892966200513,-20.252251260152264 A 96.92535409560006 96.92535409560006 0 0 0 21.40063509461097,-12.933012701892217 Z M 98.18464522453513,-21.688535409480522 L 97.8924478593938,-20.73217736993442 A 95.92535409560006 95.92535409560006 0 0 1 113.86135620382476,-14.233123847247743 L 112.48534739542677,-11.567303193263092 L 120.31093919785526,-11.46674006998322 L 115.69603461502206,-17.78755138589395 L 114.32002580662407,-15.121730731909295 A 96.92535409560006 96.92535409560006 0 0 0 98.18464522453513,-21.688535409480522"/><text text-anchor="middle" pointer-events="none" font-size="8px" fill="#000000" x="67.59264091870538" y="-22.3918087362576" transform="rotate(180 67.59264091870538 -25.3918087362576)" font-family="sans-serif">PublicTransport</text></g></g><g class="layer nodes"><g class="node" aria-label="graph-node1" transform="translate(142.45934212721613,-21.691831633894406)"><circle class="outline" cx="0" cy="0" r="25" fill="#F79767" stroke="#f36924" stroke-width="2px"/><text class="caption" text-anchor="middle" pointer-events="none" x="0" y="5" font-size="10px" fill="#FFFFFF" font-family="sans-serif"> Darjeeling</text></g><g class="node" aria-label="graph-node3" transform="translate(-212.06929981857425,32.924138109119355)"><circle class="outline" cx="0" cy="0" r="25" fill="#57C7E3" stroke="#23b3d7" stroke-width="2px"/><text class="caption" text-anchor="middle" pointer-events="none" x="0" y="5" font-size="10px" fill="#2A2C34" font-family="sans-serif"> Sandakp…</text></g><g class="node" aria-label="graph-node0" transform="translate(13.89023124078915,-83.20342511249558)"><circle class="outline" cx="0" cy="0" r="25" fill="#F79767" stroke="#f36924" stroke-width="2px"/><text class="caption" text-anchor="middle" pointer-events="none" x="0" y="5" font-size="10px" fill="#FFFFFF" font-family="sans-serif"> Rimbik</text></g><g class="node" aria-label="graph-node2" transform="translate(-65.2775061229458,40.22682415489627)"><circle class="outline" cx="0" cy="0" r="25" fill="#C990C0" stroke="#b261a5" stroke-width="2px"/><text class="caption" text-anchor="middle" pointer-events="none" x="0" y="5" font-size="10px" fill="#FFFFFF" font-family="sans-serif"> BhikeBh…</text></g></g></svg>