<svg xmlns="http://www.w3.org/2000/svg" width="541.2889404296875" height="181.50128173828125" viewBox="-228.24656677246094 -101.64849853515625 541.2889404296875 181.50128173828125"><title>Neo4j Graph Visualization</title><desc>Created using Neo4j (http://www.neo4j.com/)</desc><g class="layer relationships"><g class="relationship" transform="translate(164.06783194662822 -71.71991485007081) rotate(405.61372402087795)"><path class="outline" fill="#A5ABB6" stroke="none" d="M 25 0.5 L 65.03567115209087 0.5 L 65.03567115209087 -0.5 L 25 -0.5 Z M 99.48098365209087 0.5 L 139.51665480418174 0.5 L 139.51665480418174 3.5 L 146.51665480418174 0 L 139.51665480418174 -3.5 L 139.51665480418174 -0.5 L 99.48098365209087 -0.5 Z"/><text text-anchor="middle" pointer-events="none" font-size="8px" fill="#000000" x="82.25832740209087" y="3" font-family="sans-serif">ORIGIN</text></g><g class="relationship" transform="translate(164.06783194662822 -71.71991485007081) rotate(510.55144192859603)"><path class="outline" fill="#A5ABB6" stroke="none" d="M 25 0.5 L 40.74455323457137 0.5 L 40.74455323457137 -0.5 L 25 -0.5 Z M 99.93205323457137 0.5 L 115.67660646914274 0.5 L 115.67660646914274 3.5 L 122.67660646914274 0 L 115.67660646914274 -3.5 L 115.67660646914274 -0.5 L 99.93205323457137 -0.5 Z"/><text text-anchor="middle" pointer-events="none" font-size="8px" fill="#000000" x="70.33830323457137" y="3" transform="rotate(180 70.33830323457137 0)" font-family="sans-serif">DESTINATION</text></g><g class="relationship" transform="translate(-89.40736692560974 -72.64850062208852) rotate(390.49092880861275)"><path class="outline" fill="#A5ABB6" stroke="none" d="M 25 0.5 L 51.73725321369564 0.5 L 51.73725321369564 -0.5 L 25 -0.5 Z M 86.18256571369564 0.5 L 112.91981892739128 0.5 L 112.91981892739128 3.5 L 119.91981892739128 0 L 112.91981892739128 -3.5 L 112.91981892739128 -0.5 L 86.18256571369564 -0.5 Z"/><text text-anchor="middle" pointer-events="none" font-size="8px" fill="#000000" x="68.95990946369564" y="3" font-family="sans-serif">ORIGIN</text></g><g class="relationship" transform="translate(-89.40736692560974 -72.64850062208852) rotate(499.7360027591594)"><path class="outline" fill="#A5ABB6" stroke="none" d="M 25 0.5 L 38.877720051850076 0.5 L 38.877720051850076 -0.5 L 25 -0.5 Z M 98.06522005185008 0.5 L 111.94294010370015 0.5 L 111.94294010370015 3.5 L 118.94294010370015 0 L 111.94294010370015 -3.5 L 111.94294010370015 -0.5 L 98.06522005185008 -0.5 Z"/><text text-anchor="middle" pointer-events="none" font-size="8px" fill="#000000" x="68.47147005185008" y="3" transform="rotate(180 68.47147005185008 0)" font-family="sans-serif">DESTINATION</text></g></g><g class="layer nodes"><g class="node" aria-label="graph-node21" transform="translate(284.04239128216153,50.85279005384096)"><circle class="outline" cx="0" cy="0" r="25" fill="#C990C0" stroke="#b261a5" stroke-width="2px"/><text class="caption" text-anchor="middle" pointer-events="none" x="0" y="5" font-size="10px" fill="#FFFFFF" font-family="sans-serif"> MSN</text></g><g class="node" aria-label="graph-node68" transform="translate(-199.24656840436705,20.383320945622188)"><circle class="outline" cx="0" cy="0" r="25" fill="#C990C0" stroke="#b261a5" stroke-width="2px"/><text class="caption" text-anchor="middle" pointer-events="none" x="0" y="5" font-size="10px" fill="#FFFFFF" font-family="sans-serif"> GRR</text></g><g class="node" aria-label="graph-node271" transform="translate(164.06783194662822,-71.71991485007081)"><circle class="outline" cx="0" cy="0" r="25" fill="#F79767" stroke="#f36924" stroke-width="2px"/><text class="caption" text-anchor="middle" pointer-events="none" x="0" y="5" font-size="10px" fill="#FFFFFF" font-family="sans-serif"> 11/30/20…</text></g><g class="node" aria-label="graph-node7" transform="translate(35.471418392618176,0.8840968799161126)"><circle class="outline" cx="0" cy="0" r="25" fill="#C990C0" stroke="#b261a5" stroke-width="2px"/><text class="caption" text-anchor="middle" pointer-events="none" x="0" y="5" font-size="10px" fill="#FFFFFF" font-family="sans-serif"> ORD</text></g><g class="node" aria-label="graph-node851" transform="translate(-89.40736692560974,-72.64850062208852)"><circle class="outline" cx="0" cy="0" r="25" fill="#F79767" stroke="#f36924" stroke-width="2px"/><text class="caption" text-anchor="middle" pointer-events="none" x="0" y="5" font-size="10px" fill="#FFFFFF" font-family="sans-serif"> 11/17/20…</text></g></g></svg>