<svg xmlns="http://www.w3.org/2000/svg" width="426.2412414550781" height="177.02285766601562" viewBox="-259.0693359375 -72.34088134765625 426.2412414550781 177.02285766601562"><title>Neo4j Graph Visualization</title><desc>Created using Neo4j (http://www.neo4j.com/)</desc><g class="layer relationships"><g class="relationship" transform="translate(138.17190798962147 29.076889351536067) rotate(520.8589885626217)"><path class="outline" fill="#A5ABB6" stroke="none" d="M 21.40063509461097,12.933012701892217 L 21.90063509461097,12.06698729810778 A 95.52606785034048 95.52606785034048 0 0 0 57.82094403351138,24.128117597349416 L 57.69697028212842,25.120403095060652 A 96.52606785034048 96.52606785034048 0 0 1 21.40063509461097,12.933012701892217 Z M 77.0953590159782,25.57853983857315 L 77.01836748237798,24.581508091960288 A 95.52606785034048 95.52606785034048 0 0 0 113.4680119231067,14.229557623290825 L 112.09233477374617,11.563565803962174 L 119.91793902643364,11.463976244671041 L 115.30224812225406,17.784213382395695 L 113.92657097289353,15.118221563067044 A 96.52606785034048 96.52606785034048 0 0 1 77.0953590159782,25.57853983857315"/><text text-anchor="middle" pointer-events="none" font-size="8px" fill="#000000" x="67.39642885686287" y="28.3382844012325" transform="rotate(180 67.39642885686287 25.3382844012325)" font-family="sans-serif">trek</text></g><g class="relationship" transform="translate(3.895356184456957 75.68197911196651) rotate(234.3164290689083)"><path class="outline" fill="#A5ABB6" stroke="none" d="M 25 0.5 L 60.09933355572191 0.5 L 60.09933355572191 -0.5 L 25 -0.5 Z M 79.43527105572191 0.5 L 114.53460461144383 0.5 L 114.53460461144383 3.5 L 121.53460461144383 0 L 114.53460461144383 -3.5 L 114.53460461144383 -0.5 L 79.43527105572191 -0.5 Z"/><text text-anchor="middle" pointer-events="none" font-size="8px" fill="#000000" x="69.76730230572191" y="3" transform="rotate(180 69.76730230572191 0)" font-family="sans-serif">trek</text></g><g class="relationship" transform="translate(-81.57949923756333 -43.34087348036931) rotate(538.3547691759511)"><path class="outline" fill="#A5ABB6" stroke="none" d="M 25 0.5 L 61.107550770981575 0.5 L 61.107550770981575 -0.5 L 25 -0.5 Z M 80.44348827098158 0.5 L 116.55103904196315 0.5 L 116.55103904196315 3.5 L 123.55103904196315 0 L 116.55103904196315 -3.5 L 116.55103904196315 -0.5 L 80.44348827098158 -0.5 Z"/><text text-anchor="middle" pointer-events="none" font-size="8px" fill="#000000" x="70.77551952098158" y="3" transform="rotate(180 70.77551952098158 0)" font-family="sans-serif">trek</text></g><g class="relationship" transform="translate(138.17190798962147 29.076889351536067) rotate(520.8589885626217)"><path class="outline" fill="#A5ABB6" stroke="none" d="M 25 0.5 L 56.56140938541954 0.5 L 56.56140938541954 -0.5 L 25 -0.5 Z M 78.57312813541954 0.5 L 110.13453752083907 0.5 L 110.13453752083907 3.5 L 117.13453752083907 0 L 110.13453752083907 -3.5 L 110.13453752083907 -0.5 L 78.57312813541954 -0.5 Z"/><text text-anchor="middle" pointer-events="none" font-size="8px" fill="#000000" x="67.56726876041954" y="3" transform="rotate(180 67.56726876041954 0)" font-family="sans-serif">road</text></g><g class="relationship" transform="translate(138.17190798962147 29.076889351536067) rotate(520.8589885626217)"><path class="outline" fill="#A5ABB6" stroke="none" d="M 21.40063509461097,-12.933012701892217 L 21.90063509461097,-12.06698729810778 A 95.52606785034048 95.52606785034048 0 0 1 37.355442551812715,-19.235638375793087 L 37.017228834918335,-20.1767077046443 A 96.52606785034048 96.52606785034048 0 0 0 21.40063509461097,-12.933012701892217 Z M 97.98542692370356,-21.616609343561393 L 97.6920164643877,-20.66062278384203 A 95.52606785034048 95.52606785034048 0 0 1 113.4680119231067,-14.229557623290825 L 112.09233477374617,-11.563565803962174 L 119.91793902643364,-11.463976244671041 L 115.30224812225406,-17.784213382395695 L 113.92657097289353,-15.118221563067044 A 96.52606785034048 96.52606785034048 0 0 0 97.98542692370356,-21.616609343561393"/><text text-anchor="middle" pointer-events="none" font-size="8px" fill="#000000" x="67.39642885686285" y="-22.3382844012325" transform="rotate(180 67.39642885686285 -25.3382844012325)" font-family="sans-serif">PublicTransport</text></g></g><g class="layer nodes"><g class="node" aria-label="graph-node1" transform="translate(138.17190798962147,29.076889351536067)"><circle class="outline" cx="0" cy="0" r="25" fill="#F79767" stroke="#f36924" stroke-width="2px"/><text class="caption" text-anchor="middle" pointer-events="none" x="0" y="5" font-size="10px" fill="#FFFFFF" font-family="sans-serif"> Darjeeling</text></g><g class="node" aria-label="graph-node3" transform="translate(-230.06929981857425,-39.07586189088064)"><circle class="outline" cx="0" cy="0" r="25" fill="#57C7E3" stroke="#23b3d7" stroke-width="2px"/><text class="caption" text-anchor="middle" pointer-events="none" x="0" y="5" font-size="10px" fill="#2A2C34" font-family="sans-serif"> Sandakp…</text></g><g class="node" aria-label="graph-node0" transform="translate(3.895356184456957,75.68197911196651)"><circle class="outline" cx="0" cy="0" r="25" fill="#F79767" stroke="#f36924" stroke-width="2px"/><text class="caption" text-anchor="middle" pointer-events="none" x="0" y="5" font-size="10px" fill="#FFFFFF" font-family="sans-serif"> Rimbik</text></g><g class="node" aria-label="graph-node2" transform="translate(-81.57949923756333,-43.34087348036931)"><circle class="outline" cx="0" cy="0" r="25" fill="#C990C0" stroke="#b261a5" stroke-width="2px"/><text class="caption" text-anchor="middle" pointer-events="none" x="0" y="5" font-size="10px" fill="#FFFFFF" font-family="sans-serif"> BhikeBh…</text></g></g></svg>